<svg xmlns="http://www.w3.org/2000/svg" width="1080" height="1920" version="1.0" viewBox="0 0 810 1440"><defs><clipPath id="a"><path d="M311 1122h390v243H311Zm0 0"/></clipPath><clipPath id="b"><path d="m933.441 1335.043-608.625 64.18-34.37-325.946 608.628-64.175Zm0 0"/></clipPath><clipPath id="c"><path d="m933.441 1335.043-608.625 64.18-34.37-325.946 608.628-64.175Zm0 0"/></clipPath><clipPath id="d"><path d="M575 1119h235v231H575Zm0 0"/></clipPath><clipPath id="e"><path d="m933.441 1335.043-608.625 64.18-34.37-325.946 608.628-64.175Zm0 0"/></clipPath><clipPath id="f"><path d="m933.441 1335.043-608.625 64.18-34.37-325.946 608.628-64.175Zm0 0"/></clipPath><clipPath id="g"><path d="M423 1042h387v275H423Zm0 0"/></clipPath><clipPath id="h"><path d="m933.441 1335.043-608.625 64.18-34.37-325.946 608.628-64.175Zm0 0"/></clipPath><clipPath id="i"><path d="m933.441 1335.043-608.625 64.18-34.37-325.946 608.628-64.175Zm0 0"/></clipPath><clipPath id="j"><path d="M372 1056h283v187H372Zm0 0"/></clipPath><clipPath id="k"><path d="m933.441 1335.043-608.625 64.18-34.37-325.946 608.628-64.175Zm0 0"/></clipPath><clipPath id="l"><path d="m933.441 1335.043-608.625 64.18-34.37-325.946 608.628-64.175Zm0 0"/></clipPath><clipPath id="m"><path d="M535 1051h275v212H535Zm0 0"/></clipPath><clipPath id="n"><path d="m933.441 1335.043-608.625 64.18-34.37-325.946 608.628-64.175Zm0 0"/></clipPath><clipPath id="o"><path d="m933.441 1335.043-608.625 64.18-34.37-325.946 608.628-64.175Zm0 0"/></clipPath><clipPath id="p"><path d="M592 548h218v189H592Zm0 0"/></clipPath><clipPath id="q"><path d="m892.016 748.535-471.676-8.383 4.492-252.71 471.676 8.382Zm0 0"/></clipPath><clipPath id="r"><path d="m420.492 740.152 471.676 8.387 4.492-252.71-471.676-8.388Zm0 0"/></clipPath><clipPath id="s"><path d="M423 561h266v180H423Zm0 0"/></clipPath><clipPath id="t"><path d="m892.016 748.535-471.676-8.383 4.492-252.71 471.676 8.382Zm0 0"/></clipPath><clipPath id="u"><path d="m420.492 740.152 471.676 8.387 4.492-252.71-471.676-8.388Zm0 0"/></clipPath><clipPath id="v"><path d="M489 495h311v212H489Zm0 0"/></clipPath><clipPath id="w"><path d="m892.016 748.535-471.676-8.383 4.492-252.71 471.676 8.382Zm0 0"/></clipPath><clipPath id="x"><path d="m420.492 740.152 471.676 8.387 4.492-252.71-471.676-8.388Zm0 0"/></clipPath><clipPath id="y"><path d="M620 497h190v146H620Zm0 0"/></clipPath><clipPath id="z"><path d="m892.016 748.535-471.676-8.383 4.492-252.71 471.676 8.382Zm0 0"/></clipPath><clipPath id="A"><path d="m420.492 740.152 471.676 8.387 4.492-252.71-471.676-8.388Zm0 0"/></clipPath><clipPath id="B"><path d="M475 506h240v162H475Zm0 0"/></clipPath><clipPath id="C"><path d="m892.016 748.535-471.676-8.383 4.492-252.71 471.676 8.382Zm0 0"/></clipPath><clipPath id="D"><path d="m420.492 740.152 471.676 8.387 4.492-252.71-471.676-8.388Zm0 0"/></clipPath><clipPath id="E"><path d="M0 857h280v189H0Zm0 0"/></clipPath><clipPath id="F"><path d="m278.738 1058.195-471.675-8.386 4.492-252.707 471.675 8.382Zm0 0"/></clipPath><clipPath id="G"><path d="m-192.785 1049.813 471.676 8.386 4.492-252.71-471.676-8.387Zm0 0"/></clipPath><clipPath id="H"><path d="M0 870h76v180H0Zm0 0"/></clipPath><clipPath id="I"><path d="m278.738 1058.195-471.675-8.386 4.492-252.707 471.675 8.382Zm0 0"/></clipPath><clipPath id="J"><path d="m-192.785 1049.813 471.676 8.386 4.492-252.71-471.676-8.387Zm0 0"/></clipPath><clipPath id="K"><path d="M0 804h187v212H0Zm0 0"/></clipPath><clipPath id="L"><path d="m278.738 1058.195-471.675-8.386 4.492-252.707 471.675 8.382Zm0 0"/></clipPath><clipPath id="M"><path d="m-192.785 1049.813 471.676 8.386 4.492-252.71-471.676-8.387Zm0 0"/></clipPath><clipPath id="N"><path d="M7 806h220v146H7Zm0 0"/></clipPath><clipPath id="O"><path d="m278.738 1058.195-471.675-8.386 4.492-252.707 471.675 8.382Zm0 0"/></clipPath><clipPath id="P"><path d="m-192.785 1049.813 471.676 8.386 4.492-252.71-471.676-8.387Zm0 0"/></clipPath><clipPath id="Q"><path d="M0 815h102v163H0Zm0 0"/></clipPath><clipPath id="R"><path d="m278.738 1058.195-471.675-8.386 4.492-252.707 471.675 8.382Zm0 0"/></clipPath><clipPath id="S"><path d="m-192.785 1049.813 471.676 8.386 4.492-252.71-471.676-8.387Zm0 0"/></clipPath><clipPath id="T"><path d="M785 26h25v189h-25Zm0 0"/></clipPath><clipPath id="U"><path d="m1085.113 226.992-471.676-8.383L617.93-34.1l471.675 8.386Zm0 0"/></clipPath><clipPath id="V"><path d="m613.59 218.613 471.676 8.383 4.492-252.71-471.676-8.384Zm0 0"/></clipPath><clipPath id="W"><path d="M616 39h194v180H616Zm0 0"/></clipPath><clipPath id="X"><path d="m1085.113 226.992-471.676-8.383L617.93-34.1l471.675 8.386Zm0 0"/></clipPath><clipPath id="Y"><path d="m613.59 218.613 471.676 8.383 4.492-252.71-471.676-8.384Zm0 0"/></clipPath><clipPath id="Z"><path d="M682 0h128v185H682Zm0 0"/></clipPath><clipPath id="aa"><path d="m1085.113 226.992-471.676-8.383L617.93-34.1l471.675 8.386Zm0 0"/></clipPath><clipPath id="ab"><path d="m613.59 218.613 471.676 8.383 4.492-252.71-471.676-8.384Zm0 0"/></clipPath><clipPath id="ac"><path d="M668 0h142v147H668Zm0 0"/></clipPath><clipPath id="ad"><path d="m1085.113 226.992-471.676-8.383L617.93-34.1l471.675 8.386Zm0 0"/></clipPath><clipPath id="ae"><path d="m613.59 218.613 471.676 8.383 4.492-252.71-471.676-8.384Zm0 0"/></clipPath></defs><path fill="#fff" d="M-81-144h972v1728H-81z"/><path fill="#d4e4ff" d="M-81-144h972v1728H-81z"/><g clip-path="url(#a)"><g clip-path="url(#b)"><g clip-path="url(#c)"><path fill="#e8f1ff" d="M311.191 1250.582c1.122 28.371 52.38 47.605 80.118 46.605a49.064 49.064 0 0 0 7.398-.835c3.617 25.105 25.242 43.976 50.578 43.062a47.96 47.96 0 0 0 20.899-5.625c16.918 19.473 41.875 31.395 69.261 30.402 42.887-1.566 77.364-34.257 83.48-76.074a55.53 55.53 0 0 0 22.567 3.867c31.38-1.14 55.801-28.07 54.543-60.16-1.27-32.09-27.722-57.176-59.117-56.031a55.444 55.444 0 0 0-10.648 1.422c-4.723-24.594-26.383-42.75-51.61-41.836a49.398 49.398 0 0 0-25.36 8.074c-10.519-13.523-26.952-21.95-45.1-21.289-24.305.883-44.27 17.797-50.567 40.457-8.012-5.605-17.778-8.746-28.211-8.371-22.781.836-41.098 18.148-44.43 40.332-26.633 2.195-74.883 28.406-73.8 56Zm0 0"/></g></g></g><g clip-path="url(#d)"><g clip-path="url(#e)"><g clip-path="url(#f)"><path fill="#e8f1ff" d="M575.969 1238.781c1.062 27.012 23.347 48.13 49.758 47.172a47.222 47.222 0 0 0 7.035-.781c3.433 23.91 24.039 41.879 48.164 41 7.183-.27 13.926-2.164 19.902-5.36 16.113 18.551 39.875 29.903 65.957 28.95 40.836-1.48 73.664-32.614 79.488-72.43a53.107 53.107 0 0 0 21.485 3.68c29.883-1.094 53.129-26.739 51.93-57.282-1.208-30.554-26.403-54.437-56.29-53.359-3.476.125-6.863.59-10.136 1.356-4.5-23.415-25.117-40.7-49.149-39.832a47.019 47.019 0 0 0-24.144 7.687c-10.016-12.879-25.672-20.898-42.938-20.277-23.133.843-42.148 16.949-48.152 38.527-7.625-5.344-16.93-8.332-26.86-7.965-21.68.785-39.124 17.285-42.3 38.403-25.375 2.085-44.79 24.25-43.75 50.511Zm0 0"/></g></g></g><g clip-path="url(#g)"><g clip-path="url(#h)"><g clip-path="url(#i)"><path fill="#f1f6ff" d="M424.816 1137.867c-5.449 31.094 15.34 61.031 46.434 66.875 2.824.535 5.637.836 8.418.953-1.91 28.168 17.691 54.086 46.098 59.407 8.457 1.59 16.8 1.187 24.562-.883 14.215 25.39 39.172 44.566 69.863 50.328 48.063 9.02 94.102-17.887 110.774-61.781a65.167 65.167 0 0 0 24.191 9.843c35.168 6.602 68.672-16.554 74.836-51.73 6.164-35.18-17.355-69.04-52.527-75.64a64.477 64.477 0 0 0-12.184-1.114c.551-27.89-19.258-53.035-47.527-58.348-10.488-1.972-20.813-.953-30.11 2.442-8.507-17.324-24.796-30.578-45.136-34.39-27.238-5.106-53.43 8.276-65.781 31.316-7.59-8.09-17.711-13.95-29.399-16.141-25.527-4.793-49.976 9.441-58.91 32.707-30.137-4.266-58.293 15.926-63.602 46.156Zm0 0"/></g></g></g><g clip-path="url(#j)"><g clip-path="url(#k)"><g clip-path="url(#l)"><path fill="#fff" d="M373.313 1172.414c3.734 21.848 24.269 36.55 45.843 32.828a40.377 40.377 0 0 0 5.7-1.418c5.367 19.059 24.175 31.39 43.89 27.992a38.398 38.398 0 0 0 15.766-6.558c15.191 13.3 35.902 19.887 57.199 16.222 33.351-5.738 56.984-34.699 57.539-67.718a44.335 44.335 0 0 0 18.023.61c24.414-4.2 40.762-27.645 36.536-52.345-4.227-24.699-27.446-41.343-51.864-37.132a44.58 44.58 0 0 0-8.18 2.226c-6.18-18.535-24.93-30.316-44.566-26.937a39.359 39.359 0 0 0-19.008 8.945c-9.59-9.352-23.28-14.14-37.398-11.711-18.898 3.246-32.797 18.473-35.422 36.668a36.544 36.544 0 0 0-22.894-3.504c-17.72 3.055-30.286 18.398-30.633 35.914-20.594 4.492-34.176 24.676-30.531 45.918Zm0 0"/></g></g></g><g clip-path="url(#m)"><g clip-path="url(#n)"><g clip-path="url(#o)"><path fill="#fff" d="M845.973 1147.871c1.187 24.57-17.2 45.367-41.043 46.45a41.948 41.948 0 0 1-6.403-.2c-1.207 21.934-18.312 39.746-40.093 40.734a41.143 41.143 0 0 1-18.329-3.386c-13.02 18.011-33.515 30.058-57.062 31.125-36.86 1.676-68.86-24.133-77.242-59.793a47.537 47.537 0 0 1-19.047 4.926c-26.98 1.222-49.926-20.317-51.262-48.106-1.332-27.785 19.45-51.305 46.43-52.543 3.148-.14 6.234.027 9.226.473 2.2-21.559 19.383-38.766 41.067-39.758 8.05-.371 15.695 1.55 22.34 5.187 7.992-12.421 21.449-20.847 37.043-21.55 20.886-.95 39.27 12.25 46.37 31.367 6.438-5.41 14.575-8.805 23.536-9.203 19.57-.89 36.57 12.781 41.101 31.695 22.993.027 42.211 18.688 43.368 42.582Zm0 0"/></g></g></g><path fill="#e8f1ff" d="M487.723 268.406c1.945 29.68-49.348 55.356-78.36 57.36a51.425 51.425 0 0 1-7.8-.055c-1.008 26.555-21.47 48.59-47.97 50.426-7.898.539-15.5-.77-22.39-3.567-15.488 22.149-40.183 37.309-68.828 39.285-44.855 3.082-84.371-27.195-95.34-70.09a58.24 58.24 0 0 1-23.086 6.508c-32.824 2.258-61.226-23.117-63.441-56.691-2.203-33.578 22.605-62.617 55.441-64.879 3.82-.27 7.586-.14 11.254.313 2.215-26.141 22.79-47.442 49.176-49.258a51.744 51.744 0 0 1 27.309 5.625c9.476-15.246 25.671-25.832 44.656-27.137 25.418-1.75 48.082 13.68 57.133 36.598 7.726-6.719 17.562-11.067 28.472-11.82 23.828-1.633 44.813 14.394 50.723 37.14 27.992-.637 81.144 21.371 83.05 50.242Zm0 0"/><path fill="#e8f1ff" d="M210.543 285.2c1.86 28.26-19.04 52.714-46.66 54.616a49.959 49.959 0 0 1-7.418-.039c-.953 25.29-20.445 46.274-45.68 48.008-7.515.512-14.75-.723-21.328-3.394-14.746 21.097-38.262 35.535-65.543 37.41-42.71 2.941-80.336-25.887-90.777-66.738a55.54 55.54 0 0 1-21.98 6.195c-31.259 2.144-58.298-22.024-60.403-53.977-2.102-31.969 21.527-59.62 52.785-61.777a54.619 54.619 0 0 1 10.715.297c2.117-24.895 21.695-45.168 46.832-46.903a49.22 49.22 0 0 1 26 5.356c9.023-14.52 24.453-24.594 42.512-25.844 24.195-1.664 45.78 13.028 54.406 34.852 7.36-6.407 16.723-10.543 27.11-11.25 22.675-1.567 42.667 13.71 48.292 35.363 26.668-.61 49.332 20.348 51.137 47.824Zm0 0"/><path fill="#f1f6ff" d="M356.95 163.45c9.09 31.796-9.282 65.273-41.036 74.777a61.151 61.151 0 0 1-8.668 1.918c5.086 29.144-12.488 58.296-41.504 66.964-8.637 2.586-17.375 3.086-25.687 1.778-12.02 28.02-35.918 50.738-67.266 60.117-49.09 14.676-100.012-8.3-122.207-52.203a68.282 68.282 0 0 1-24.125 12.914c-35.918 10.742-73.371-9.703-83.66-45.68-10.285-35.976 10.5-73.84 46.422-84.582a67.665 67.665 0 0 1 12.574-2.5c-3.637-29 14.234-57.375 43.105-66.016 10.715-3.21 21.586-3.28 31.645-.765 6.96-18.984 22.477-34.582 43.25-40.793 27.82-8.313 56.578 2.758 71.98 25.406 7.02-9.265 16.922-16.484 28.86-20.05 26.07-7.801 53.11 4.347 64.972 27.609 30.934-7.758 62.489 10.187 71.344 41.105Zm0 0"/><path fill="#fff" d="M414.406 193.785c-1.492 23.172-21.27 40.746-44.16 39.242a42.933 42.933 0 0 1-6.094-.851c-3.496 20.445-21.742 35.363-42.656 33.984a40.16 40.16 0 0 1-17.148-5.101c-14.364 15.53-35.223 24.668-57.817 23.191-35.379-2.316-63.183-29.895-67.39-64.238a46.379 46.379 0 0 1-18.711 2.613c-25.903-1.688-45.512-24.324-43.82-50.523 1.69-26.2 24.054-46.094 49.956-44.387 3.012.2 5.954.68 8.77 1.418 4.402-19.988 22.648-34.324 43.476-32.961 7.731.512 14.82 3.11 20.786 7.23 8.968-10.797 22.707-17.293 37.683-16.312 20.047 1.308 36.203 15.644 40.934 34.316 6.734-4.39 14.863-6.722 23.473-6.168 18.796 1.239 33.574 15.844 35.863 34.059 21.949 2.414 38.32 21.953 36.855 44.488Zm0 0"/><path fill="#fff" d="M-80.773 220.14c1.464 25.731 22.902 45.383 47.867 43.891a44.585 44.585 0 0 0 6.648-.91c3.668 22.719 23.445 39.399 46.25 38.035a43.095 43.095 0 0 0 18.727-5.539c15.547 17.332 38.222 27.633 62.875 26.156 38.59-2.3 69.094-32.707 73.91-70.785a49.85 49.85 0 0 0 20.39 3.04c28.247-1.692 49.786-26.657 48.126-55.755-1.665-29.097-25.903-51.32-54.149-49.644a50.3 50.3 0 0 0-9.562 1.504c-4.66-22.219-24.454-38.262-47.16-36.91-8.426.496-16.184 3.336-22.704 7.855-9.691-12.062-24.64-19.367-40.965-18.387C47.613 104 29.91 119.77 24.61 140.473c-7.301-4.93-16.153-7.575-25.532-7.004-20.488 1.222-36.7 17.332-39.344 37.539-23.957 2.558-41.93 24.11-40.507 49.133Zm0 0"/><g clip-path="url(#p)"><g clip-path="url(#q)"><g clip-path="url(#r)"><path fill="#e8f1ff" d="M892.684 633.469c1.043 21.863-37.028 40.082-58.399 41.176-1.937.101-3.86.046-5.738-.145-1.09 19.523-16.43 35.469-35.95 36.469a36.932 36.932 0 0 1-16.425-2.918c-11.684 16.094-30.047 26.926-51.145 28.004-33.043 1.68-61.715-21.11-69.222-52.809a42.844 42.844 0 0 1-17.07 4.484c-24.176 1.23-44.739-17.808-45.93-42.535-1.184-24.73 17.449-45.77 41.633-47.004a42.762 42.762 0 0 1 8.277.38c1.972-19.208 17.387-34.606 36.82-35.598a38.058 38.058 0 0 1 20.016 4.496c7.172-11.094 19.226-18.668 33.207-19.383 18.722-.953 35.195 10.695 41.55 27.676 5.778-4.844 13.067-7.914 21.106-8.324 17.55-.891 32.777 11.171 36.828 27.984 20.602-.102 59.418 16.785 60.442 38.047Zm0 0"/></g></g></g><g clip-path="url(#s)"><g clip-path="url(#t)"><g clip-path="url(#u)"><path fill="#e8f1ff" d="M688.55 642.2c1 20.816-14.695 38.53-35.042 39.57-1.852.093-3.668.05-5.453-.13-1.032 18.594-15.649 33.778-34.235 34.723a35.113 35.113 0 0 1-15.644-2.777c-11.125 15.332-28.614 25.644-48.707 26.668-31.461 1.605-58.762-20.098-65.91-50.285a40.869 40.869 0 0 1-16.254 4.27c-23.024 1.171-42.598-16.966-43.727-40.5-1.129-23.548 16.613-43.579 39.64-44.759 2.68-.14 5.31-.007 7.876.36 1.883-18.285 16.554-32.945 35.066-33.89a36.194 36.194 0 0 1 19.059 4.28c6.828-10.566 18.312-17.773 31.613-18.457 17.82-.91 33.508 10.184 39.566 26.352 5.5-4.621 12.442-7.54 20.09-7.926 16.703-.851 31.211 10.645 35.067 26.649 19.629-.102 36.027 15.613 36.996 35.851Zm0 0"/></g></g></g><g clip-path="url(#v)"><g clip-path="url(#w)"><g clip-path="url(#x)"><path fill="#f1f6ff" d="M797.848 554.547c6.273 23.512-7.68 47.898-31.164 54.476a45.477 45.477 0 0 1-6.403 1.297c3.36 21.504-9.949 42.723-31.41 48.72-6.387 1.792-12.82 2.042-18.922.972-9.207 20.457-27.086 36.855-50.265 43.343-36.309 10.157-73.47-7.41-89.223-40a50.367 50.367 0 0 1-17.918 9.188c-26.566 7.43-53.852-8.102-60.95-34.7-7.097-26.6 8.692-54.187 35.255-61.62a49.9 49.9 0 0 1 9.285-1.672c-2.297-21.383 11.222-42.024 32.578-48 7.922-2.223 15.918-2.133 23.289-.153 5.367-13.875 16.988-25.148 32.352-29.445 20.574-5.75 41.586 2.77 52.62 19.633 5.286-6.723 12.665-11.906 21.489-14.371 19.285-5.399 39.016 3.89 47.441 21.16 22.856-5.305 45.836 8.309 51.946 31.172Zm0 0"/></g></g></g><g clip-path="url(#y)"><g clip-path="url(#z)"><g clip-path="url(#A)"><path fill="#fff" d="M839.723 577.613c-1.403 17.032-16.18 29.7-33 28.293a31.85 31.85 0 0 1-4.473-.707c-2.84 14.996-16.457 25.735-31.824 24.446a29.598 29.598 0 0 1-12.551-3.977c-10.77 11.238-26.234 17.687-42.836 16.305-25.996-2.168-46.09-22.82-48.738-48.141a34.13 34.13 0 0 1-13.797 1.68c-19.035-1.582-33.164-18.492-31.578-37.742 1.586-19.254 18.3-33.594 37.332-32.004 2.215.187 4.37.582 6.433 1.16 3.5-14.649 17.11-24.957 32.414-23.68a30.367 30.367 0 0 1 15.2 5.59c6.734-7.824 16.93-12.422 27.933-11.504 14.73 1.223 26.43 11.98 29.664 25.777a28.207 28.207 0 0 1 17.352-4.23c13.812 1.156 24.492 12.094 25.933 25.523 16.122 2.067 27.907 16.653 26.536 33.211Zm0 0"/></g></g></g><g clip-path="url(#B)"><g clip-path="url(#C)"><g clip-path="url(#D)"><path fill="#fff" d="M475.09 590.527c.738 18.95 16.254 33.688 34.64 32.914a32.518 32.518 0 0 0 4.903-.582c2.402 16.762 16.734 29.293 33.527 28.586 5-.21 9.7-1.57 13.848-3.828 11.21 12.953 27.758 20.828 45.914 20.063 28.418-1.188 51.258-23.157 55.3-51.106a36.591 36.591 0 0 0 14.958 2.5c20.804-.87 36.976-18.957 36.133-40.386-.84-21.43-18.383-38.094-39.184-37.231a36.86 36.86 0 0 0-7.055.984c-3.14-16.41-17.488-28.468-34.21-27.773a32.637 32.637 0 0 0-16.805 5.484c-6.973-9-17.875-14.57-29.895-14.062-16.105.676-29.336 12.047-33.504 27.207-5.308-3.723-11.789-5.781-18.695-5.488-15.086.632-27.223 12.273-29.434 27.105-17.656 1.566-31.16 17.188-30.441 35.613Zm0 0"/></g></g></g><g clip-path="url(#E)"><g clip-path="url(#F)"><g clip-path="url(#G)"><path fill="#e8f1ff" d="M279.402 943.129c1.047 21.863-37.023 40.078-58.394 41.176-1.938.101-3.86.047-5.738-.145-1.09 19.524-16.43 35.469-35.95 36.469a36.923 36.923 0 0 1-16.425-2.918c-11.684 16.094-30.047 26.926-51.149 28.004-33.039 1.68-61.71-21.11-69.219-52.813a42.847 42.847 0 0 1-17.07 4.489c-24.176 1.23-44.738-17.809-45.93-42.54-1.183-24.726 17.446-45.769 41.633-47a43.035 43.035 0 0 1 8.274.376c1.972-19.204 17.386-34.602 36.824-35.594a38.066 38.066 0 0 1 20.015 4.496c7.172-11.094 19.227-18.668 33.207-19.383 18.723-.953 35.192 10.695 41.551 27.676 5.774-4.844 13.067-7.914 21.102-8.324 17.55-.891 32.781 11.172 36.832 27.984 20.601-.102 59.418 16.785 60.437 38.047Zm0 0"/></g></g></g><g clip-path="url(#H)"><g clip-path="url(#I)"><g clip-path="url(#J)"><path fill="#e8f1ff" d="M75.273 951.86c1 20.816-14.695 38.53-35.043 39.57a36.11 36.11 0 0 1-5.453-.13c-1.03 18.595-15.648 33.778-34.234 34.723a35.113 35.113 0 0 1-15.645-2.777c-11.128 15.332-28.617 25.645-48.71 26.668-31.458 1.606-58.758-20.098-65.907-50.285a40.886 40.886 0 0 1-16.254 4.27c-23.023 1.171-42.597-16.965-43.726-40.5-1.13-23.547 16.613-43.579 39.637-44.758 2.68-.141 5.312-.012 7.878.359 1.883-18.285 16.551-32.945 35.067-33.89a36.202 36.202 0 0 1 19.058 4.28c6.829-10.566 18.309-17.777 31.614-18.46 17.82-.907 33.508 10.187 39.566 26.355 5.5-4.62 12.442-7.539 20.09-7.926 16.703-.851 31.21 10.645 35.066 26.649 19.63-.102 36.028 15.613 36.996 35.851Zm0 0"/></g></g></g><g clip-path="url(#K)"><g clip-path="url(#L)"><g clip-path="url(#M)"><path fill="#f1f6ff" d="M184.57 864.207c6.274 23.512-7.68 47.898-31.168 54.477a45.537 45.537 0 0 1-6.398 1.296c3.36 21.504-9.953 42.723-31.41 48.72-6.387 1.788-12.824 2.042-18.922.972-9.207 20.453-27.086 36.855-50.27 43.344-36.304 10.156-73.468-7.41-89.218-40a50.367 50.367 0 0 1-17.918 9.187c-26.567 7.43-53.852-8.101-60.95-34.7-7.097-26.6 8.692-54.187 35.254-61.62a50.233 50.233 0 0 1 9.285-1.676c-2.296-21.379 11.223-42.02 32.579-47.996 7.921-2.223 15.918-2.133 23.285-.152 5.37-13.875 16.988-25.149 32.351-29.446 20.578-5.75 41.59 2.77 52.621 19.633 5.286-6.723 12.668-11.906 21.493-14.371 19.285-5.398 39.015 3.89 47.441 21.156 22.855-5.3 45.836 8.313 51.945 31.176Zm0 0"/></g></g></g><g clip-path="url(#N)"><g clip-path="url(#O)"><g clip-path="url(#P)"><path fill="#fff" d="M226.445 887.273c-1.402 17.028-16.183 29.7-33 28.293a31.905 31.905 0 0 1-4.476-.707c-2.836 14.996-16.453 25.735-31.82 24.446a29.598 29.598 0 0 1-12.551-3.977c-10.77 11.238-26.235 17.684-42.836 16.305-25.996-2.168-46.094-22.82-48.739-48.14a34.15 34.15 0 0 1-13.8 1.679C20.19 903.59 6.063 886.68 7.648 867.43c1.586-19.254 18.301-33.594 37.332-32.004 2.215.187 4.372.582 6.43 1.16 3.504-14.649 17.113-24.957 32.418-23.68 5.68.477 10.86 2.48 15.2 5.59 6.734-7.824 16.929-12.422 27.933-11.504 14.73 1.223 26.426 11.98 29.664 25.778a28.202 28.202 0 0 1 17.348-4.23c13.812 1.155 24.492 12.093 25.937 25.523 16.117 2.066 27.906 16.652 26.535 33.21Zm0 0"/></g></g></g><g clip-path="url(#Q)"><g clip-path="url(#R)"><g clip-path="url(#S)"><path fill="#fff" d="M-138.188 900.188c.739 18.949 16.254 33.687 34.641 32.914a32.578 32.578 0 0 0 4.902-.582c2.399 16.761 16.73 29.293 33.528 28.585 5-.21 9.699-1.57 13.847-3.828 11.211 12.953 27.758 20.828 45.91 20.063 28.422-1.188 51.262-23.156 55.301-51.11a36.557 36.557 0 0 0 14.961 2.504c20.805-.875 36.977-18.957 36.133-40.386-.844-21.43-18.383-38.094-39.187-37.23a36.864 36.864 0 0 0-7.051.984c-3.14-16.41-17.492-28.47-34.211-27.774a32.65 32.65 0 0 0-16.809 5.485c-6.968-9-17.87-14.57-29.894-14.063-16.102.676-29.332 12.047-33.504 27.207-5.309-3.723-11.785-5.781-18.691-5.488-15.09.633-27.227 12.273-29.434 27.101-17.656 1.57-31.16 17.192-30.442 35.617Zm0 0"/></g></g></g><g clip-path="url(#T)"><g clip-path="url(#U)"><g clip-path="url(#V)"><path fill="#e8f1ff" d="M1085.781 111.93c1.043 21.86-37.027 40.078-58.398 41.172-1.938.101-3.86.046-5.738-.145-1.09 19.523-16.43 35.469-35.95 36.473a36.987 36.987 0 0 1-16.425-2.918c-11.684 16.093-30.047 26.922-51.145 28-33.043 1.683-61.715-21.11-69.223-52.809a42.844 42.844 0 0 1-17.07 4.484c-24.176 1.235-44.738-17.804-45.93-42.535-1.183-24.73 17.45-45.77 41.633-47.004a42.762 42.762 0 0 1 8.278.38c1.968-19.204 17.386-34.606 36.82-35.598a38.095 38.095 0 0 1 20.015 4.496c7.172-11.09 19.227-18.668 33.207-19.38 18.723-.952 35.196 10.696 41.551 27.673 5.778-4.844 13.067-7.91 21.106-8.324 17.55-.891 32.777 11.175 36.828 27.988 20.601-.106 59.418 16.781 60.441 38.047Zm0 0"/></g></g></g><g clip-path="url(#W)"><g clip-path="url(#X)"><g clip-path="url(#Y)"><path fill="#e8f1ff" d="M881.648 120.66c1 20.813-14.695 38.531-35.043 39.57-1.851.09-3.668.051-5.453-.128-1.03 18.593-15.648 33.777-34.234 34.722a35.222 35.222 0 0 1-15.645-2.777c-11.125 15.328-28.613 25.64-48.707 26.664-31.46 1.605-58.761-20.094-65.91-50.281a40.999 40.999 0 0 1-16.254 4.27c-23.023 1.167-42.597-16.966-43.726-40.5-1.13-23.548 16.613-43.579 39.64-44.759 2.68-.14 5.309-.011 7.875.36 1.883-18.285 16.555-32.946 35.067-33.895a36.23 36.23 0 0 1 19.058 4.282c6.829-10.563 18.313-17.774 31.614-18.458 17.82-.906 33.508 10.184 39.566 26.352 5.5-4.617 12.442-7.535 20.09-7.922 16.703-.855 31.21 10.645 35.066 26.649 19.63-.102 36.028 15.613 36.996 35.851Zm0 0"/></g></g></g><g clip-path="url(#Z)"><g clip-path="url(#aa)"><g clip-path="url(#ab)"><path fill="#f1f6ff" d="M990.945 33.004c6.274 23.512-7.68 47.898-31.164 54.476a44.394 44.394 0 0 1-6.402 1.297c3.36 21.508-9.95 42.727-31.41 48.723-6.387 1.79-12.824 2.04-18.922.969-9.207 20.457-27.086 36.86-50.266 43.347-36.308 10.157-73.468-7.414-89.222-40A50.296 50.296 0 0 1 745.64 151c-26.567 7.434-53.852-8.098-60.95-34.7-7.097-26.6 8.692-54.183 35.254-61.616a49.592 49.592 0 0 1 9.285-1.676c-2.296-21.383 11.223-42.024 32.579-48 7.921-2.223 15.918-2.133 23.289-.153 5.367-13.87 16.988-25.144 32.351-29.44 20.574-5.755 41.586 2.765 52.621 19.628 5.282-6.723 12.664-11.902 21.489-14.371 19.285-5.399 39.015 3.894 47.441 21.16 22.855-5.305 45.836 8.313 51.945 31.172Zm0 0"/></g></g></g><g clip-path="url(#ac)"><g clip-path="url(#ad)"><g clip-path="url(#ae)"><path fill="#fff" d="M668.188 68.988c.738 18.95 16.253 33.684 34.64 32.914a32.518 32.518 0 0 0 4.902-.582c2.403 16.762 16.735 29.29 33.528 28.586 5-.215 9.699-1.574 13.847-3.832 11.211 12.957 27.758 20.832 45.915 20.067 28.418-1.188 51.257-23.16 55.3-51.11a36.658 36.658 0 0 0 14.957 2.504c20.805-.875 36.977-18.957 36.133-40.387-.84-21.43-18.383-38.093-39.183-37.23a36.86 36.86 0 0 0-7.055.98c-3.14-16.406-17.488-28.468-34.211-27.77a32.597 32.597 0 0 0-16.805 5.481c-6.972-9-17.875-14.566-29.894-14.058-16.106.676-29.336 12.047-33.504 27.207-5.309-3.723-11.79-5.785-18.696-5.488-15.085.628-27.222 12.273-29.433 27.101-17.656 1.566-31.16 17.191-30.442 35.617Zm0 0"/></g></g></g><path fill="#999ae8" d="M102.06 859.462c0-3.657.234-6.473.703-8.453.469-1.977 1.332-3.86 2.594-5.641 1.457-2.29 3.437-4.086 5.937-5.39 2.508-1.313 5.227-1.97 8.156-1.97 3.02 0 5.86.762 8.516 2.282 2.664 1.512 4.734 3.57 6.203 6.172a18 18 0 0 1 1.953 5.265c.364 1.825.547 4.403.547 7.735v37.75c0 3.96-.105 7.375-.312 10.25-.211 2.875-.602 5.465-1.172 7.765-.574 2.293-1.309 4.43-2.203 6.407-.887 1.98-2.008 3.964-3.36 5.953-3.867 5.742-8.797 10.23-14.797 13.468-6 3.227-12.449 4.844-19.343 4.844-5.844 0-11.375-1.148-16.594-3.437-5.219-2.301-9.813-5.586-13.781-9.86-3.657-3.968-6.375-8.328-8.157-13.078-1.773-4.75-2.656-10.258-2.656-16.531 0-4.695.39-8.453 1.172-11.266.79-2.82 2.125-5.273 4-7.36 3.031-3.655 7.05-5.483 12.063-5.483 5.425 0 9.753 1.75 12.984 5.25 3.238 3.492 4.754 8.109 4.547 13.859v5.937c-.106 2.094.492 3.82 1.797 5.172 1.312 1.356 2.906 2.032 4.781 2.032 1.781 0 3.219-.547 4.312-1.641 1.094-1.094 1.743-2.578 1.954-4.453.101-.52.156-1.223.156-2.11v-3.53Zm7.672 71.406c-3.762 2.617-8.305 3.922-13.625 3.922-6.262 0-11.922-1.645-16.985-4.938-5.062-3.289-8.797-7.754-11.203-13.39-1.46-3.227-2.187-7.563-2.187-13v-5.157c0-2.3-.887-3.453-2.657-3.453-1.156 0-1.945.5-2.359 1.5-.418.992-.625 2.84-.625 5.547 0 3.762.313 7.133.938 10.11.625 2.968 1.515 5.71 2.671 8.218 2.915 5.95 7.22 10.727 12.907 14.328 5.695 3.606 11.832 5.407 18.406 5.407 3.758 0 7.02-.364 9.781-1.094 2.77-.738 5.516-1.992 8.235-3.766 1.77-1.039 2.656-2.191 2.656-3.453a2.57 2.57 0 0 0-.781-1.875c-.524-.52-1.094-.781-1.72-.781-.523 0-1.202.262-2.046.781Zm3.61-84.406c-.837 0-1.571.32-2.204.953-.625.625-.938 1.355-.938 2.187 0 .836.313 1.563.938 2.188.633.625 1.367.937 2.203.937.832 0 1.563-.312 2.188-.937.625-.625.937-1.352.937-2.188 0-.832-.312-1.562-.937-2.187-.625-.633-1.356-.953-2.188-.953Zm.155 13c0-1.977-.156-3.282-.468-3.907-.313-.625-1.047-.937-2.204-.937-1.148 0-1.902.312-2.265.937-.367.625-.547 1.93-.547 3.907v44.625c0 2.718-.418 4.703-1.25 5.953-.523.625-.836 1.101-.938 1.422a2.913 2.913 0 0 0-.156.937c0 .625.258 1.172.781 1.64.52.47 1.145.704 1.875.704 1.665 0 2.942-.961 3.829-2.89.894-1.938 1.343-4.63 1.343-8.079Zm-47.14 27.25c-.938 0-1.719.312-2.344.937-.625.625-.938 1.356-.938 2.188 0 .843.313 1.578.938 2.203.625.625 1.406.937 2.344.937.832 0 1.562-.312 2.187-.937.633-.625.953-1.36.953-2.203 0-.832-.32-1.563-.953-2.188-.625-.625-1.355-.937-2.187-.937ZM203.997 835.977c7.625 0 14.774 1.438 21.453 4.313 6.688 2.867 12.508 6.804 17.47 11.812 4.956 5.012 8.866 10.86 11.733 17.547 2.875 6.68 4.313 13.828 4.313 21.453 0 7.617-1.438 14.766-4.313 21.453-2.867 6.68-6.777 12.497-11.734 17.454-4.96 4.96-10.781 8.875-17.469 11.75-6.68 2.863-13.828 4.296-21.453 4.296-7.617 0-14.765-1.433-21.453-4.296-6.68-2.875-12.523-6.79-17.531-11.75-5.012-4.957-8.953-10.774-11.828-17.454-2.867-6.687-4.297-13.836-4.297-21.453 0-7.625 1.43-14.773 4.297-21.453 2.875-6.687 6.816-12.535 11.828-17.547 5.008-5.008 10.851-8.945 17.531-11.812 6.688-2.875 13.836-4.313 21.453-4.313Zm0 34.61c-2.812 0-5.476.523-7.984 1.562-2.5 1.043-4.668 2.508-6.5 4.39-1.824 1.876-3.281 4.071-4.375 6.579-1.094 2.5-1.64 5.164-1.64 7.984 0 2.813.519 5.477 1.562 7.985 1.039 2.5 2.5 4.668 4.375 6.5 1.883 1.824 4.078 3.289 6.578 4.39 2.508 1.094 5.172 1.64 7.984 1.64 2.82 0 5.485-.546 7.985-1.64 2.507-1.101 4.675-2.566 6.5-4.39 1.832-1.832 3.296-4 4.39-6.5 1.094-2.508 1.64-5.172 1.64-7.985 0-2.82-.546-5.484-1.64-7.984-1.094-2.508-2.558-4.703-4.39-6.578-1.825-1.883-3.993-3.348-6.5-4.39-2.5-1.04-5.164-1.563-7.985-1.563Zm-43.375 20.203c0-3.758.598-7.649 1.797-11.672 1.207-4.02 2.75-7.54 4.625-10.563.832-1.156 1.328-1.941 1.484-2.359.165-.414.25-.883.25-1.406 0-1.664-.789-2.5-2.359-2.5-1.148 0-2.344.937-3.594 2.812-2.304 3.45-4.132 7.547-5.484 12.297-1.355 4.75-2.031 9.477-2.031 14.172 0 6.68 1.273 12.969 3.828 18.875 2.562 5.898 6.062 11.04 10.5 15.422 4.437 4.375 9.656 7.82 15.656 10.328 6 2.512 12.395 3.766 19.188 3.766 3.644 0 7.375-.442 11.187-1.328 3.813-.895 7.234-2.176 10.266-3.844 1.664-.832 2.5-1.88 2.5-3.14 0-.727-.211-1.352-.625-1.876-.418-.52-.992-.781-1.719-.781-.313 0-.633.078-.953.234-.313.157-1.043.496-2.188 1.016-6.261 2.93-12.527 4.39-18.797 4.39-6.054 0-11.714-1.144-16.984-3.437-5.273-2.3-9.867-5.437-13.781-9.406-3.918-3.969-7.027-8.613-9.328-13.938-2.293-5.32-3.438-11.008-3.438-17.062Zm75.016.937c0-4.593-.813-8.847-2.438-12.765-1.617-3.914-3.836-7.305-6.656-10.172-2.812-2.875-6.18-5.117-10.094-6.735-3.918-1.625-8.12-2.437-12.609-2.437-2.086 0-4.121.184-6.11.547-1.98.367-3.726.84-5.234 1.422-1.511.574-2.715 1.226-3.61 1.953-.886.73-1.327 1.512-1.327 2.344 0 1.78.781 2.671 2.343 2.671.426 0 1.211-.265 2.36-.796 3.758-1.875 7.723-2.813 11.89-2.813 3.758 0 7.235.684 10.422 2.047 3.188 1.355 5.953 3.262 8.297 5.719 2.352 2.449 4.18 5.32 5.485 8.609 1.3 3.281 1.953 6.805 1.953 10.563a23.63 23.63 0 0 1-.39 4.39c-.263 1.356-.759 2.969-1.485 4.844-.418 1.25-.625 2.031-.625 2.344 0 .636.234 1.187.703 1.656.469.469 1.066.703 1.797.703 1.351 0 2.398-.89 3.14-2.672.727-1.562 1.274-3.36 1.641-5.39.363-2.04.547-4.051.547-6.032Zm-63.89-36.328c-.837 0-1.595.313-2.282.938-.68.625-1.016 1.355-1.016 2.187 0 .938.336 1.727 1.016 2.36.687.625 1.445.937 2.281.937.832 0 1.563-.312 2.188-.937.625-.633.937-1.422.937-2.36 0-.832-.312-1.562-.937-2.187-.625-.625-1.356-.938-2.188-.938ZM324.575 859.462c0-3.657.234-6.473.703-8.453.477-1.977 1.344-3.86 2.594-5.641 1.457-2.29 3.437-4.086 5.937-5.39 2.508-1.313 5.227-1.97 8.156-1.97 3.032 0 5.875.762 8.532 2.282 2.664 1.512 4.726 3.57 6.187 6.172a18 18 0 0 1 1.953 5.265c.364 1.825.547 4.403.547 7.735v37.75c0 7.093-.68 12.965-2.031 17.609-1.356 4.648-3.652 9.11-6.89 13.39-4.282 5.743-9.4 10.126-15.344 13.157-5.95 3.02-12.528 4.531-19.735 4.531-7.199 0-13.777-1.512-19.734-4.531-5.95-3.031-11.117-7.414-15.5-13.156-3.23-4.282-5.5-8.743-6.813-13.391-1.304-4.644-1.953-10.516-1.953-17.61v-37.75c0-3.656.235-6.472.703-8.452a18.032 18.032 0 0 1 2.422-5.641 16.776 16.776 0 0 1 6.031-5.39c2.457-1.313 5.145-1.97 8.063-1.97 3.133 0 6.004.762 8.61 2.282 2.613 1.512 4.648 3.57 6.109 6.172a17.82 17.82 0 0 1 1.968 5.265c.364 1.825.547 4.403.547 7.735v40.093c0 7.938 3.18 11.907 9.547 11.907 6.258 0 9.39-3.97 9.39-11.907Zm-43.219-13c-.836 0-1.562.32-2.187.953-.625.625-.938 1.355-.938 2.187 0 .836.313 1.563.938 2.188.625.625 1.351.937 2.187.937.844 0 1.578-.312 2.203-.937.625-.625.938-1.352.938-2.188 0-.832-.313-1.562-.938-2.187-.625-.633-1.36-.953-2.203-.953Zm54.5 0c-.836 0-1.562.32-2.187.953-.625.625-.938 1.355-.938 2.187 0 .836.313 1.563.938 2.188.625.625 1.351.937 2.187.937.832 0 1.563-.312 2.188-.937.632-.625.953-1.352.953-2.188 0-.832-.32-1.562-.953-2.187-.625-.633-1.356-.953-2.188-.953Zm.156 13c0-1.977-.156-3.282-.468-3.907-.313-.625-1.043-.937-2.188-.937-1.156 0-1.918.312-2.281.937-.367.625-.547 1.93-.547 3.907v39.468c0 1.563-.055 2.922-.156 4.079a17.998 17.998 0 0 1-.547 3.125 13.04 13.04 0 0 1-1.172 2.812 71.368 71.368 0 0 1-1.875 3.14c-.938 1.356-1.406 2.4-1.406 3.126 0 1.668.832 2.5 2.5 2.5 1.664 0 3.492-1.926 5.484-5.782 1.04-1.988 1.742-3.867 2.11-5.64.363-1.781.546-4.18.546-7.203Zm-10.953 73.297c-1.156.523-2.758.937-4.797 1.25-2.03.312-3.933.468-5.703.468-5.324 0-10.281-1.195-14.875-3.593-4.594-2.407-8.406-5.801-11.437-10.188-1.149-1.562-2.059-3.125-2.735-4.687-.68-1.57-1.25-3.297-1.718-5.172-.47-1.883-.782-3.973-.938-6.266-.156-2.3-.234-5.02-.234-8.156v-36.953c0-1.977-.188-3.282-.563-3.907-.367-.625-1.12-.937-2.265-.937-1.149 0-1.875.312-2.188.937-.312.625-.469 1.93-.469 3.907v36.64c0 3.762.13 7.028.391 9.797.258 2.762.676 5.266 1.25 7.516a29.81 29.81 0 0 0 2.344 6.265c1 1.93 2.281 3.829 3.843 5.704 3.551 4.593 7.989 8.171 13.313 10.734 5.32 2.562 10.906 3.844 16.75 3.844 2.508 0 5.016-.258 7.516-.782 2.507-.53 4.546-1.21 6.109-2.046 1.457-.727 2.187-1.72 2.187-2.97 0-1.675-.73-2.515-2.187-2.515-.73 0-1.305.156-1.719.469ZM408.83 912.4v10.171c0 3.656-.234 6.48-.702 8.469a17.886 17.886 0 0 1-2.422 5.625c-1.574 2.304-3.617 4.105-6.125 5.406a17.024 17.024 0 0 1-7.969 1.953c-3.137 0-6.039-.73-8.703-2.187-2.656-1.47-4.719-3.504-6.188-6.11-.937-1.77-1.562-3.566-1.875-5.39-.312-1.832-.468-4.422-.468-7.766v-63.89c0-3.758.414-6.837 1.25-9.235.832-2.406 2.297-4.441 4.39-6.11 1.977-1.663 4.14-2.835 6.485-3.515 2.351-.687 5.515-1.031 9.484-1.031h14.094c4.281 0 7.566.133 9.86.39 2.3.262 4.6.657 6.905 1.188 4.063 1.148 7.766 2.871 11.11 5.172a36.575 36.575 0 0 1 8.61 8.219c2.405 3.18 4.284 6.699 5.64 10.562a36.296 36.296 0 0 1 2.031 12.063c0 5.117-.887 9.761-2.656 13.937-1.774 4.168-4.64 8.445-8.61 12.828l8.297 12.844a22.386 22.386 0 0 1 2.422 5.406c.57 1.93.86 3.887.86 5.875 0 2.399-.446 4.617-1.329 6.656a15.708 15.708 0 0 1-3.687 5.25c-1.563 1.461-3.39 2.633-5.484 3.516-2.086.883-4.325 1.328-6.72 1.328-3.241 0-6.14-.781-8.702-2.344-2.555-1.57-4.715-3.765-6.485-6.578Zm2.97-30.079c1.882 0 3.086-.05 3.609-.156 3.344-.52 5.016-2.29 5.016-5.313 0-3.758-2.875-5.64-8.625-5.64h-2.97v11.109Zm-.313-22.078c-1.773 0-2.996.156-3.672.469-.68.312-1.015 1.047-1.015 2.203 0 1.148.312 1.902.937 2.265.625.368 1.875.547 3.75.547h1.578c1.977 0 3.567.106 4.766.313 1.207.21 2.281.574 3.219 1.094 3.539 2.093 5.312 5.18 5.312 9.25l.156 1.875c0 2.293.942 3.437 2.828 3.437 1.665 0 2.5-1.457 2.5-4.375 0-5.32-1.648-9.5-4.937-12.531-3.281-3.031-7.898-4.547-13.844-4.547Zm13.781 68.125 1.094 1.875c1.883 3.031 3.61 5.121 5.172 6.266 1.57 1.148 3.453 1.718 5.64 1.718 2.395 0 3.594-.988 3.594-2.968 0-1.457-.836-2.344-2.5-2.657l-1.875-.328c-1.25-.312-2.375-.988-3.375-2.031-.992-1.04-2.37-3.024-4.14-5.953l-13.625-23.485c-1.149-1.875-2.297-2.812-3.453-2.812-1.668 0-2.5.836-2.5 2.5 0 .836.156 1.46.468 1.875l.782 1.406Zm-39.765-81.906c-.836 0-1.57.32-2.203.953-.625.625-.938 1.355-.938 2.187 0 .836.313 1.563.938 2.188.632.625 1.367.937 2.203.937.832 0 1.562-.312 2.187-.937.625-.625.938-1.352.938-2.188 0-.832-.313-1.562-.938-2.187-.625-.633-1.355-.953-2.187-.953Zm-5.172 76.422c0 3.03.101 5.277.312 6.734.207 1.46.676 2.766 1.407 3.922a9.452 9.452 0 0 0 3.671 3.36 10.32 10.32 0 0 0 4.782 1.171c2.406 0 3.61-.988 3.61-2.969 0-1.351-.626-2.133-1.876-2.343l-1.422-.157c-2.086-.425-3.465-1.316-4.14-2.672-.68-1.351-1.016-4.015-1.016-7.984v-62.484c0-1.977-.156-3.282-.469-3.907-.312-.625-1.047-.937-2.203-.937-1.148 0-1.875.312-2.187.937-.313.625-.47 1.93-.47 3.907ZM503.414 901.9v20.671c0 3.656-.234 6.48-.703 8.469a17.886 17.886 0 0 1-2.422 5.625c-1.574 2.304-3.617 4.105-6.125 5.406a17.024 17.024 0 0 1-7.969 1.953c-3.136 0-6.039-.73-8.703-2.187-2.656-1.47-4.719-3.504-6.187-6.11-.938-1.77-1.563-3.566-1.875-5.39-.313-1.832-.47-4.422-.47-7.766v-65.297c0-5.945 1.587-10.644 4.767-14.094 3.187-3.445 7.55-5.171 13.093-5.171 4.801 0 9.13 2.296 12.985 6.89l27.406 33.672v-19.11c0-3.656.234-6.472.703-8.452a18.258 18.258 0 0 1 2.438-5.641c1.562-2.29 3.593-4.086 6.093-5.39a17.012 17.012 0 0 1 8-1.97c3.125 0 5.992.762 8.61 2.282 2.613 1.512 4.648 3.57 6.109 6.172a18 18 0 0 1 1.953 5.265c.363 1.825.547 4.403.547 7.735v62.953c0 3.969-.262 7-.781 9.094-.524 2.085-1.512 4.117-2.969 6.093-3.45 4.282-8.094 6.422-13.937 6.422-2.72 0-5.18-.625-7.375-1.875-2.188-1.25-4.43-3.336-6.72-6.265Zm40.406 30.062a5.368 5.368 0 0 1-2.203-1.094c-.625-.52-1.355-1.352-2.187-2.5l-1.094-1.25-27.563-34.61c-.937-1.144-1.617-1.898-2.03-2.265-.419-.375-.938-.563-1.563-.563-.637 0-1.215.266-1.735.797a2.555 2.555 0 0 0-.781 1.875c0 .625.625 1.719 1.875 3.282l27.875 35.703c1.988 2.511 3.61 4.183 4.86 5.015 1.25.836 2.71 1.25 4.39 1.25 2.188 0 3.281-.988 3.281-2.968 0-1.25-.574-2.036-1.718-2.36Zm-63.734-85.5c-.836 0-1.57.32-2.203.953-.625.625-.938 1.355-.938 2.187 0 .836.313 1.563.938 2.188.633.625 1.367.937 2.203.937.832 0 1.562-.312 2.187-.937.625-.625.938-1.352.938-2.188 0-.832-.313-1.562-.938-2.187-.625-.633-1.355-.953-2.187-.953Zm-5.172 76.422c0 3.03.102 5.277.313 6.734.207 1.46.675 2.766 1.406 3.922a9.452 9.452 0 0 0 3.672 3.36 10.32 10.32 0 0 0 4.78 1.171c2.407 0 3.61-.988 3.61-2.969 0-1.351-.625-2.133-1.875-2.343l-1.422-.157c-2.086-.425-3.464-1.316-4.14-2.672-.68-1.351-1.016-4.015-1.016-7.984v-62.484c0-1.977-.156-3.282-.469-3.907-.312-.625-1.046-.937-2.203-.937-1.148 0-1.875.312-2.187.937-.313.625-.469 1.93-.469 3.907Zm63.578-76.422c-.836 0-1.57.32-2.203.953-.625.625-.937 1.355-.937 2.187 0 .836.312 1.563.937 2.188.633.625 1.367.937 2.203.937.832 0 1.563-.312 2.188-.937.625-.625.937-1.352.937-2.188 0-.832-.312-1.562-.937-2.187-.625-.633-1.356-.953-2.188-.953Zm-5.328 38.062c0 1.875.156 3.153.469 3.828.312.68 1.047 1.016 2.203 1.016 1.144 0 1.898-.336 2.266-1.016.363-.675.546-1.953.546-3.828v-25.062c0-1.977-.183-3.282-.546-3.907-.368-.625-1.122-.937-2.266-.937-1.156 0-1.89.312-2.203.937-.313.625-.469 1.93-.469 3.907ZM601.435 943.243c-2.187 0-4.07-.024-5.64-.078-1.563-.051-2.891-.18-3.985-.39a20.799 20.799 0 0 1-2.984-.782 17.66 17.66 0 0 1-2.735-1.25 16.729 16.729 0 0 1-4.546-3.922c-1.25-1.562-2.137-3.234-2.657-5.016a24.271 24.271 0 0 1-.78-4.765c-.106-1.625-.157-4.313-.157-8.063v-62.015c0-1.352.05-2.473.156-3.36.102-.894.258-1.656.469-2.281.207-.625.469-1.352.781-2.187a14.275 14.275 0 0 1 3.36-5.25c1.519-1.508 3.171-2.63 4.953-3.36.937-.32 1.796-.613 2.578-.875.781-.258 1.691-.441 2.734-.547 1.04-.101 2.316-.18 3.828-.234 1.52-.05 3.43-.078 5.735-.078h26.218c1.414 0 2.54.027 3.375.078.832.055 1.508.133 2.032.234.52.106 1.093.211 1.718.313 3.657.844 6.63 2.68 8.922 5.5 2.301 2.812 3.453 6.047 3.453 9.703 0 2.5-.496 4.875-1.484 7.125-.992 2.242-2.375 4.09-4.156 5.547a13.76 13.76 0 0 1-5.328 2.906c-1.98.574-4.59.86-7.829.86h-17.218v7.203h12.375c4.906 0 8.66 1.074 11.265 3.218 2.614 2.137 3.922 5.188 3.922 9.157 0 4.062-1.515 7.351-4.547 9.859-1.355 1.043-2.793 1.746-4.312 2.11-1.512.366-3.621.546-6.328.546h-12.375v7.828h15.812c3.758 0 6.656.293 8.688.875 2.039.575 3.945 1.59 5.718 3.047 3.758 3.242 5.641 7.313 5.641 12.219 0 2.398-.496 4.719-1.484 6.969-.992 2.242-2.375 4.09-4.157 5.547a13.245 13.245 0 0 1-2.578 1.812c-.886.469-1.855.836-2.906 1.094-1.043.262-2.266.445-3.672.547-1.406.105-3.105.156-5.094.156Zm13.313-46.031h10.656c2.602 0 4.453-.258 5.547-.782 1.101-.53 1.656-1.472 1.656-2.828 0-1.77-.84-2.656-2.516-2.656-.312 0-.78.106-1.406.313-.937.21-1.617.34-2.031.39-.418.055-1.356.078-2.813.078h-10.656c-2.187 0-3.281.938-3.281 2.813 0 1.781 1.3 2.672 3.906 2.672Zm14.562 40.078c2.196 0 3.844-.102 4.938-.313 1.093-.207 2.054-.57 2.89-1.093 1.782-1.145 2.672-2.399 2.672-3.766 0-.727-.234-1.352-.703-1.875-.469-.52-1.074-.781-1.812-.781a2.08 2.08 0 0 0-.938.234c-.312.156-.836.445-1.562.86-.836.624-1.668 1.015-2.5 1.171-.836.157-2.247.235-4.235.235h-20.672l-1.562-.157c-2.188.211-3.281 1.102-3.281 2.672 0 1.149.336 1.903 1.015 2.266.676.367 1.953.547 3.828.547Zm-40.234-90.672c-.836 0-1.57.32-2.203.953-.625.625-.938 1.356-.938 2.188 0 .835.313 1.562.938 2.187.633.625 1.367.938 2.203.938.832 0 1.562-.313 2.187-.938.625-.625.938-1.352.938-2.187 0-.832-.313-1.563-.938-2.188-.625-.633-1.355-.953-2.187-.953Zm-1.89 85.984c1.78 0 2.671-.836 2.671-2.515 0-.207-.027-.414-.078-.625a3.15 3.15 0 0 1-.078-.782c-.211-.726-.34-1.351-.39-1.875-.055-.52-.079-1.359-.079-2.515v-64.828c0-1.977-.156-3.282-.469-3.907-.312-.625-1.047-.937-2.203-.937-1.148 0-1.875.34-2.187 1.016-.313.68-.469 1.953-.469 3.828v63.109c0 3.969.207 6.637.625 8 .414 1.356 1.3 2.031 2.656 2.031Zm25.843-72.984c-2.086 0-3.125.89-3.125 2.672 0 1.148.312 1.902.937 2.265.625.368 1.926.547 3.907.547h14.562c2.301 0 3.973-.101 5.016-.312a8.303 8.303 0 0 0 2.812-1.094c1.782-1.144 2.672-2.398 2.672-3.766 0-.726-.234-1.351-.703-1.875-.469-.52-1.074-.78-1.812-.78-.524 0-1.356.366-2.5 1.093-.938.523-1.774.887-2.5 1.094-.73.21-2.141.312-4.235.312l-13.312-.156ZM681.617 899.4l-23.329-34.141a17.5 17.5 0 0 1-2.593-5.079c-.575-1.832-.86-3.632-.86-5.406 0-2.3.442-4.469 1.328-6.5a16.636 16.636 0 0 1 3.688-5.328 18.157 18.157 0 0 1 5.39-3.594c2.04-.894 4.266-1.343 6.672-1.343 6.676 0 12.157 3.293 16.438 9.875l10.812 16.437 11.579-16.906c4.382-6.27 9.601-9.406 15.656-9.406 2.3 0 4.492.449 6.578 1.343 2.094.887 3.922 2.11 5.484 3.672 1.563 1.563 2.813 3.39 3.75 5.485a15.757 15.757 0 0 1 1.422 6.578c0 3.648-1.047 6.984-3.14 10.015l-24.266 34.766v22.703c0 3.656-.234 6.48-.703 8.469a17.886 17.886 0 0 1-2.422 5.625c-1.574 2.304-3.617 4.105-6.125 5.406-2.5 1.3-5.211 1.953-8.125 1.953-3.031 0-5.883-.73-8.547-2.187-2.656-1.47-4.719-3.504-6.187-6.11-.938-1.77-1.59-3.566-1.954-5.39-.367-1.832-.546-4.422-.546-7.766Zm34.765-39.938c.625-.832 1.04-1.485 1.25-1.953.207-.47.313-.91.313-1.329 0-.832-.235-1.507-.703-2.03-.47-.532-1.122-.798-1.954-.798-.625 0-1.148.188-1.562.563-.418.367-1.047 1.172-1.89 2.422l-8.141 11.578c-1.043 1.68-1.563 2.777-1.563 3.297 0 .73.258 1.355.781 1.875.52.523 1.196.78 2.032.78.843 0 1.992-.937 3.453-2.812Zm-49.953-13.313c-.836 0-1.539.32-2.11.953-.574.625-.859 1.407-.859 2.344 0 .836.285 1.563.86 2.188.57.625 1.273.937 2.109.937.832 0 1.563-.312 2.188-.937.625-.625.937-1.352.937-2.188 0-.937-.312-1.719-.937-2.344-.625-.633-1.356-.953-2.188-.953Zm50.89 3.297c0 .836.313 1.563.938 2.188.625.625 1.36.937 2.203.937.938 0 1.692-.312 2.266-.937.57-.625.86-1.352.86-2.188 0-.937-.29-1.719-.86-2.344-.574-.633-1.328-.953-2.266-.953-.843 0-1.578.32-2.203.953-.625.625-.937 1.407-.937 2.344Zm-24.265 52.766v-2.032c0-1.875-.21-3.437-.625-4.687-.418-1.258-1.309-2.828-2.672-4.703l-21.453-30.703c-.73-1.04-1.227-1.77-1.484-2.188a8.43 8.43 0 0 1-.703-1.406c-.418-.832-.809-1.406-1.172-1.719-.368-.312-.809-.469-1.328-.469-1.782 0-2.672.887-2.672 2.657 0 .836.312 1.804.937 2.906.625 1.094 1.672 2.734 3.14 4.922l20.048 28.969 1.093 1.718c.625.938.989 1.672 1.094 2.203.102.524.207 1.563.313 3.125v24.266c0 4.18.882 7.39 2.656 9.64 1.781 2.243 4.336 3.36 7.672 3.36 2.406 0 3.61-.988 3.61-2.969 0-1.351-.68-2.133-2.032-2.343l-1.266-.157c-2.086-.32-3.465-1.16-4.14-2.515-.68-1.352-1.016-3.805-1.016-7.36Zm0 0"/><path fill="#f4b0e5" d="M102.06 1045.52c0-3.655.234-6.472.703-8.452.469-1.977 1.332-3.86 2.594-5.64 1.457-2.29 3.437-4.087 5.937-5.391 2.508-1.313 5.227-1.97 8.156-1.97 3.02 0 5.86.762 8.516 2.282 2.664 1.512 4.734 3.57 6.203 6.172a18 18 0 0 1 1.953 5.266c.364 1.824.547 4.402.547 7.734v37.75c0 3.96-.105 7.375-.312 10.25-.211 2.875-.602 5.465-1.172 7.766-.574 2.292-1.309 4.43-2.203 6.406-.887 1.98-2.008 3.965-3.36 5.953-3.867 5.742-8.797 10.23-14.797 13.469-6 3.226-12.449 4.843-19.343 4.843-5.844 0-11.375-1.148-16.594-3.437-5.219-2.3-9.813-5.586-13.781-9.86-3.657-3.968-6.375-8.328-8.157-13.078-1.773-4.75-2.656-10.257-2.656-16.53 0-4.696.39-8.454 1.172-11.266.79-2.82 2.125-5.274 4-7.36 3.031-3.656 7.05-5.484 12.063-5.484 5.425 0 9.753 1.75 12.984 5.25 3.238 3.492 4.754 8.11 4.547 13.86v5.937c-.106 2.093.492 3.82 1.797 5.172 1.312 1.355 2.906 2.03 4.781 2.03 1.781 0 3.219-.546 4.312-1.64 1.094-1.094 1.743-2.578 1.954-4.453.101-.52.156-1.223.156-2.11v-3.53Zm7.672 71.407c-3.762 2.617-8.305 3.922-13.625 3.922-6.262 0-11.922-1.645-16.985-4.937-5.062-3.29-8.797-7.754-11.203-13.391-1.46-3.227-2.187-7.563-2.187-13v-5.156c0-2.301-.887-3.453-2.657-3.453-1.156 0-1.945.5-2.359 1.5-.418.992-.625 2.84-.625 5.546 0 3.762.313 7.133.938 10.11.625 2.969 1.515 5.71 2.671 8.219 2.915 5.949 7.22 10.726 12.907 14.328 5.695 3.605 11.832 5.406 18.406 5.406 3.758 0 7.02-.363 9.781-1.094 2.77-.738 5.516-1.992 8.235-3.765 1.77-1.04 2.656-2.192 2.656-3.454a2.57 2.57 0 0 0-.781-1.875c-.524-.52-1.094-.78-1.72-.78-.523 0-1.202.26-2.046.78Zm3.61-84.406c-.837 0-1.571.32-2.204.953-.625.625-.938 1.355-.938 2.188 0 .835.313 1.562.938 2.187.633.625 1.367.938 2.203.938.832 0 1.563-.313 2.188-.938.625-.625.937-1.352.937-2.187 0-.833-.312-1.563-.937-2.188-.625-.633-1.356-.953-2.188-.953Zm.155 13c0-1.977-.156-3.281-.468-3.906-.313-.625-1.047-.938-2.204-.938-1.148 0-1.902.313-2.265.938-.367.625-.547 1.93-.547 3.906v44.625c0 2.719-.418 4.703-1.25 5.953-.523.625-.836 1.102-.938 1.422a2.913 2.913 0 0 0-.156.937c0 .625.258 1.172.781 1.641.52.469 1.145.703 1.875.703 1.665 0 2.942-.96 3.829-2.89.894-1.938 1.343-4.63 1.343-8.079Zm-47.14 27.25c-.938 0-1.719.312-2.344.937-.625.625-.938 1.356-.938 2.188 0 .844.313 1.578.938 2.203.625.625 1.406.938 2.344.938.832 0 1.562-.313 2.187-.938.633-.625.953-1.36.953-2.203 0-.832-.32-1.563-.953-2.188-.625-.625-1.355-.937-2.187-.937ZM203.997 1022.037c7.625 0 14.774 1.437 21.453 4.312 6.688 2.867 12.508 6.805 17.47 11.813 4.956 5.011 8.866 10.859 11.733 17.546 2.875 6.68 4.313 13.829 4.313 21.454 0 7.617-1.438 14.765-4.313 21.453-2.867 6.68-6.777 12.496-11.734 17.453-4.96 4.96-10.781 8.875-17.469 11.75-6.68 2.863-13.828 4.297-21.453 4.297-7.617 0-14.765-1.434-21.453-4.297-6.68-2.875-12.523-6.79-17.531-11.75-5.012-4.957-8.953-10.774-11.828-17.453-2.867-6.688-4.297-13.836-4.297-21.453 0-7.625 1.43-14.774 4.297-21.454 2.875-6.687 6.816-12.535 11.828-17.546 5.008-5.008 10.851-8.946 17.531-11.813 6.688-2.875 13.836-4.312 21.453-4.312Zm0 34.609c-2.812 0-5.476.523-7.984 1.562-2.5 1.043-4.668 2.508-6.5 4.391-1.824 1.875-3.281 4.07-4.375 6.578-1.094 2.5-1.64 5.164-1.64 7.985 0 2.812.519 5.476 1.562 7.984 1.039 2.5 2.5 4.668 4.375 6.5 1.883 1.824 4.078 3.289 6.578 4.39 2.508 1.094 5.172 1.641 7.984 1.641 2.82 0 5.485-.547 7.985-1.64 2.507-1.102 4.675-2.567 6.5-4.391 1.832-1.832 3.296-4 4.39-6.5 1.094-2.508 1.64-5.172 1.64-7.984 0-2.82-.546-5.485-1.64-7.985-1.094-2.508-2.558-4.703-4.39-6.578-1.825-1.883-3.993-3.348-6.5-4.39-2.5-1.04-5.164-1.563-7.985-1.563Zm-43.375 20.203c0-3.758.598-7.648 1.797-11.672 1.207-4.02 2.75-7.539 4.625-10.562.832-1.157 1.328-1.942 1.484-2.36.165-.414.25-.883.25-1.406 0-1.664-.789-2.5-2.359-2.5-1.148 0-2.344.938-3.594 2.813-2.304 3.449-4.132 7.546-5.484 12.296-1.355 4.75-2.031 9.477-2.031 14.172 0 6.68 1.273 12.969 3.828 18.875 2.562 5.899 6.062 11.04 10.5 15.422 4.437 4.375 9.656 7.82 15.656 10.328 6 2.512 12.395 3.766 19.188 3.766 3.644 0 7.375-.442 11.187-1.328 3.813-.895 7.234-2.176 10.266-3.844 1.664-.832 2.5-1.879 2.5-3.14 0-.727-.211-1.352-.625-1.876-.418-.52-.992-.78-1.719-.78-.313 0-.633.077-.953.234-.313.156-1.043.496-2.188 1.015-6.261 2.93-12.527 4.39-18.797 4.39-6.054 0-11.714-1.144-16.984-3.437-5.273-2.3-9.867-5.437-13.781-9.406-3.918-3.969-7.027-8.613-9.328-13.937-2.293-5.32-3.438-11.008-3.438-17.063Zm75.016.938c0-4.594-.813-8.848-2.438-12.766-1.617-3.914-3.836-7.305-6.656-10.172-2.812-2.875-6.18-5.117-10.094-6.734-3.918-1.625-8.12-2.438-12.609-2.438-2.086 0-4.121.184-6.11.547-1.98.367-3.726.84-5.234 1.422-1.511.574-2.715 1.226-3.61 1.953-.886.73-1.327 1.512-1.327 2.344 0 1.781.781 2.672 2.343 2.672.426 0 1.211-.266 2.36-.797 3.758-1.875 7.723-2.813 11.89-2.813 3.758 0 7.235.684 10.422 2.047 3.188 1.356 5.953 3.262 8.297 5.719 2.352 2.45 4.18 5.32 5.485 8.61 1.3 3.28 1.953 6.804 1.953 10.562a23.63 23.63 0 0 1-.39 4.39c-.263 1.356-.759 2.97-1.485 4.844-.418 1.25-.625 2.031-.625 2.344 0 .637.234 1.187.703 1.656.469.469 1.066.703 1.797.703 1.351 0 2.398-.89 3.14-2.672.727-1.562 1.274-3.359 1.641-5.39.363-2.04.547-4.051.547-6.031Zm-63.89-36.329c-.837 0-1.595.313-2.282.938-.68.625-1.016 1.355-1.016 2.187 0 .938.336 1.727 1.016 2.36.687.625 1.445.937 2.281.937.832 0 1.563-.312 2.188-.937.625-.633.937-1.422.937-2.36 0-.832-.312-1.562-.937-2.187-.625-.625-1.356-.938-2.188-.938ZM324.575 1045.52c0-3.655.234-6.472.703-8.452.477-1.977 1.344-3.86 2.594-5.64 1.457-2.29 3.437-4.087 5.937-5.391 2.508-1.313 5.227-1.97 8.156-1.97 3.032 0 5.875.762 8.532 2.282 2.664 1.512 4.726 3.57 6.187 6.172a18 18 0 0 1 1.953 5.266c.364 1.824.547 4.402.547 7.734v37.75c0 7.094-.68 12.965-2.031 17.61-1.356 4.648-3.652 9.109-6.89 13.39-4.282 5.742-9.4 10.125-15.344 13.156-5.95 3.02-12.528 4.531-19.735 4.531-7.199 0-13.777-1.511-19.734-4.53-5.95-3.032-11.117-7.415-15.5-13.157-3.23-4.281-5.5-8.742-6.813-13.39-1.304-4.645-1.953-10.516-1.953-17.61v-37.75c0-3.656.235-6.473.703-8.453a18.032 18.032 0 0 1 2.422-5.64 16.776 16.776 0 0 1 6.031-5.391c2.457-1.313 5.145-1.97 8.063-1.97 3.133 0 6.004.762 8.61 2.282 2.613 1.512 4.648 3.57 6.109 6.172a17.82 17.82 0 0 1 1.968 5.266c.364 1.824.547 4.402.547 7.734v40.094c0 7.937 3.18 11.906 9.547 11.906 6.258 0 9.39-3.969 9.39-11.906Zm-43.219-13c-.836 0-1.562.321-2.187.954-.625.625-.938 1.355-.938 2.188 0 .835.313 1.562.938 2.187.625.625 1.351.938 2.187.938.844 0 1.578-.313 2.203-.938.625-.625.938-1.352.938-2.187 0-.833-.313-1.563-.938-2.188-.625-.633-1.36-.953-2.203-.953Zm54.5 0c-.836 0-1.562.321-2.187.954-.625.625-.938 1.355-.938 2.188 0 .835.313 1.562.938 2.187.625.625 1.351.938 2.187.938.832 0 1.563-.313 2.188-.938.632-.625.953-1.352.953-2.187 0-.833-.32-1.563-.953-2.188-.625-.633-1.356-.953-2.188-.953Zm.156 13c0-1.976-.156-3.28-.468-3.905-.313-.625-1.043-.938-2.188-.938-1.156 0-1.918.313-2.281.938-.367.625-.547 1.93-.547 3.906v39.469c0 1.562-.055 2.922-.156 4.078a17.998 17.998 0 0 1-.547 3.125 13.04 13.04 0 0 1-1.172 2.812 71.368 71.368 0 0 1-1.875 3.14c-.938 1.356-1.406 2.4-1.406 3.126 0 1.668.832 2.5 2.5 2.5 1.664 0 3.492-1.926 5.484-5.781 1.04-1.989 1.742-3.868 2.11-5.641.363-1.781.546-4.18.546-7.203Zm-10.953 73.298c-1.156.523-2.758.937-4.797 1.25-2.03.312-3.933.469-5.703.469-5.324 0-10.281-1.196-14.875-3.594-4.594-2.406-8.406-5.801-11.437-10.188-1.149-1.562-2.059-3.125-2.735-4.687-.68-1.57-1.25-3.297-1.718-5.172-.47-1.883-.782-3.973-.938-6.266-.156-2.3-.234-5.02-.234-8.156v-36.953c0-1.977-.188-3.281-.563-3.906-.367-.625-1.12-.938-2.265-.938-1.149 0-1.875.313-2.188.938-.312.625-.469 1.93-.469 3.906v36.64c0 3.762.13 7.028.391 9.797.258 2.762.676 5.266 1.25 7.516a29.81 29.81 0 0 0 2.344 6.266c1 1.93 2.281 3.828 3.843 5.703 3.551 4.594 7.989 8.172 13.313 10.734 5.32 2.563 10.906 3.844 16.75 3.844 2.508 0 5.016-.258 7.516-.781 2.507-.532 4.546-1.211 6.109-2.047 1.457-.727 2.187-1.719 2.187-2.969 0-1.676-.73-2.516-2.187-2.516-.73 0-1.305.157-1.719.47ZM408.83 1098.458v10.172c0 3.657-.234 6.48-.702 8.469a17.886 17.886 0 0 1-2.422 5.625c-1.574 2.305-3.617 4.105-6.125 5.406a17.024 17.024 0 0 1-7.969 1.953c-3.137 0-6.039-.73-8.703-2.187-2.656-1.469-4.719-3.504-6.188-6.11-.937-1.769-1.562-3.566-1.875-5.39-.312-1.832-.468-4.422-.468-7.766v-63.89c0-3.758.414-6.836 1.25-9.235.832-2.406 2.297-4.441 4.39-6.11 1.977-1.663 4.14-2.835 6.485-3.515 2.351-.687 5.515-1.031 9.484-1.031h14.094c4.281 0 7.566.133 9.86.39 2.3.262 4.6.657 6.905 1.188 4.063 1.149 7.766 2.871 11.11 5.172a36.575 36.575 0 0 1 8.61 8.219c2.405 3.18 4.284 6.699 5.64 10.562a36.296 36.296 0 0 1 2.031 12.063c0 5.117-.887 9.761-2.656 13.937-1.774 4.168-4.64 8.446-8.61 12.828l8.297 12.844a22.386 22.386 0 0 1 2.422 5.406c.57 1.93.86 3.887.86 5.875 0 2.399-.446 4.618-1.329 6.657a15.708 15.708 0 0 1-3.687 5.25c-1.563 1.46-3.39 2.632-5.484 3.515-2.086.883-4.325 1.328-6.72 1.328-3.241 0-6.14-.78-8.702-2.343-2.555-1.57-4.715-3.766-6.485-6.578Zm2.97-30.078c1.882 0 3.086-.05 3.609-.156 3.344-.52 5.016-2.289 5.016-5.312 0-3.758-2.875-5.641-8.625-5.641h-2.97v11.11Zm-.313-22.078c-1.773 0-2.996.156-3.672.469-.68.312-1.015 1.047-1.015 2.203 0 1.148.312 1.902.937 2.266.625.367 1.875.547 3.75.547h1.578c1.977 0 3.567.105 4.766.312 1.207.211 2.281.574 3.219 1.094 3.539 2.094 5.312 5.18 5.312 9.25l.156 1.875c0 2.293.942 3.437 2.828 3.437 1.665 0 2.5-1.457 2.5-4.375 0-5.32-1.648-9.5-4.937-12.531-3.281-3.031-7.898-4.547-13.844-4.547Zm13.781 68.125 1.094 1.875c1.883 3.031 3.61 5.121 5.172 6.266 1.57 1.148 3.453 1.719 5.64 1.719 2.395 0 3.594-.989 3.594-2.97 0-1.456-.836-2.343-2.5-2.655l-1.875-.329c-1.25-.312-2.375-.988-3.375-2.03-.992-1.04-2.37-3.024-4.14-5.954l-13.625-23.484c-1.149-1.875-2.297-2.813-3.453-2.813-1.668 0-2.5.836-2.5 2.5 0 .836.156 1.461.468 1.875l.782 1.406Zm-39.765-81.906c-.836 0-1.57.32-2.203.953-.625.625-.938 1.355-.938 2.188 0 .835.313 1.562.938 2.187.632.625 1.367.938 2.203.938.832 0 1.562-.313 2.187-.938.625-.625.938-1.352.938-2.187 0-.833-.313-1.563-.938-2.188-.625-.633-1.355-.953-2.187-.953Zm-5.172 76.422c0 3.031.101 5.277.312 6.734.207 1.461.676 2.766 1.407 3.922a9.452 9.452 0 0 0 3.671 3.36 10.32 10.32 0 0 0 4.782 1.171c2.406 0 3.61-.988 3.61-2.968 0-1.352-.626-2.133-1.876-2.344l-1.422-.156c-2.086-.426-3.465-1.317-4.14-2.672-.68-1.352-1.016-4.016-1.016-7.985v-62.484c0-1.977-.156-3.281-.469-3.906-.312-.625-1.047-.938-2.203-.938-1.148 0-1.875.313-2.187.938-.313.625-.47 1.93-.47 3.906ZM503.414 1087.958v20.672c0 3.657-.234 6.48-.703 8.469a17.886 17.886 0 0 1-2.422 5.625c-1.574 2.305-3.617 4.105-6.125 5.406a17.024 17.024 0 0 1-7.969 1.953c-3.136 0-6.039-.73-8.703-2.187-2.656-1.469-4.719-3.504-6.187-6.11-.938-1.769-1.563-3.566-1.875-5.39-.313-1.832-.47-4.422-.47-7.766v-65.297c0-5.945 1.587-10.644 4.767-14.093 3.187-3.446 7.55-5.172 13.093-5.172 4.801 0 9.13 2.297 12.985 6.89l27.406 33.672v-19.11c0-3.655.234-6.472.703-8.452a18.258 18.258 0 0 1 2.438-5.64c1.562-2.29 3.593-4.087 6.093-5.391a17.012 17.012 0 0 1 8-1.97c3.125 0 5.992.762 8.61 2.282 2.613 1.512 4.648 3.57 6.109 6.172a18 18 0 0 1 1.953 5.266c.363 1.824.547 4.402.547 7.734v62.953c0 3.969-.262 7-.781 9.094-.524 2.086-1.512 4.117-2.969 6.094-3.45 4.28-8.094 6.421-13.937 6.421-2.72 0-5.18-.625-7.375-1.875-2.188-1.25-4.43-3.336-6.72-6.265Zm40.406 30.063a5.368 5.368 0 0 1-2.203-1.094c-.625-.52-1.355-1.351-2.187-2.5l-1.094-1.25-27.563-34.61c-.937-1.144-1.617-1.898-2.03-2.265-.419-.375-.938-.562-1.563-.562-.637 0-1.215.265-1.735.797a2.555 2.555 0 0 0-.781 1.875c0 .625.625 1.718 1.875 3.28l27.875 35.704c1.988 2.512 3.61 4.183 4.86 5.016 1.25.835 2.71 1.25 4.39 1.25 2.188 0 3.281-.989 3.281-2.97 0-1.25-.574-2.034-1.718-2.359Zm-63.734-85.5c-.836 0-1.57.32-2.203.953-.625.625-.938 1.355-.938 2.188 0 .835.313 1.562.938 2.187.633.625 1.367.938 2.203.938.832 0 1.562-.313 2.187-.938.625-.625.938-1.352.938-2.187 0-.833-.313-1.563-.938-2.188-.625-.633-1.355-.953-2.187-.953Zm-5.172 76.422c0 3.031.102 5.277.313 6.734.207 1.461.675 2.766 1.406 3.922a9.452 9.452 0 0 0 3.672 3.36 10.32 10.32 0 0 0 4.78 1.171c2.407 0 3.61-.988 3.61-2.968 0-1.352-.625-2.133-1.875-2.344l-1.422-.156c-2.086-.426-3.464-1.317-4.14-2.672-.68-1.352-1.016-4.016-1.016-7.985v-62.484c0-1.977-.156-3.281-.469-3.906-.312-.625-1.046-.938-2.203-.938-1.148 0-1.875.313-2.187.938-.313.625-.469 1.93-.469 3.906Zm63.578-76.422c-.836 0-1.57.32-2.203.953-.625.625-.937 1.355-.937 2.188 0 .835.312 1.562.937 2.187.633.625 1.367.938 2.203.938.832 0 1.563-.313 2.188-.938.625-.625.937-1.352.937-2.187 0-.833-.312-1.563-.937-2.188-.625-.633-1.356-.953-2.188-.953Zm-5.328 38.062c0 1.875.156 3.153.469 3.829.312.68 1.047 1.015 2.203 1.015 1.144 0 1.898-.336 2.266-1.015.363-.676.546-1.954.546-3.829v-25.062c0-1.977-.183-3.281-.546-3.906-.368-.625-1.122-.938-2.266-.938-1.156 0-1.89.313-2.203.938-.313.625-.469 1.93-.469 3.906ZM607.545 1115.833c-2.188 5.012-4.668 8.641-7.438 10.891-2.762 2.242-6.23 3.36-10.406 3.36-2.406 0-4.656-.446-6.75-1.329-2.086-.883-3.883-2.11-5.39-3.672-1.513-1.57-2.716-3.398-3.61-5.484-.887-2.094-1.328-4.336-1.328-6.734 0-2.926.734-5.957 2.203-9.094l32.25-68.422c3.55-7.52 8.984-11.281 16.297-11.281 7.406 0 12.937 3.867 16.593 11.594l32.407 69.062a17.646 17.646 0 0 1 2.047 8.297c0 2.398-.477 4.617-1.422 6.656a18.735 18.735 0 0 1-3.75 5.406 17.038 17.038 0 0 1-5.485 3.672c-2.086.883-4.328 1.328-6.734 1.328-3.969 0-7.29-1.039-9.953-3.125-2.656-2.093-5.184-5.8-7.578-11.125Zm21.453-24.578-5.313-13-5.953 13Zm-42.438 14.25 27.563-59.36c.52-.937.832-1.64.937-2.108.102-.47.156-.86.156-1.172 0-.625-.234-1.172-.703-1.641-.468-.469-1.12-.703-1.953-.703-.625 0-1.172.21-1.64.625-.47.418-.965 1.25-1.485 2.5l-27.094 57.937c-1.468 3.344-2.464 5.746-2.984 7.204-.523 1.46-.781 2.82-.781 4.078 0 1.355.285 2.714.86 4.078.57 1.355 1.3 2.554 2.187 3.594a10.845 10.845 0 0 0 3.062 2.5c1.145.625 2.297.937 3.453.937 2.082 0 3.125-.988 3.125-2.969 0-1.25-.836-2.14-2.5-2.672-1.468-.414-2.62-1.117-3.453-2.109-.836-.988-1.25-2.21-1.25-3.672 0-1.156.57-3.035 1.719-5.64Zm53.25-16.765-7.984-18.47c-.625-1.468-1.125-2.437-1.5-2.905-.367-.47-.914-.703-1.64-.703-.731 0-1.356.261-1.876.78a2.571 2.571 0 0 0-.781 1.891c0 .313.078.758.234 1.329.157.574.391 1.12.703 1.64l8.141 18.485c.625 1.46 1.145 2.398 1.563 2.812.414.418.992.625 1.734.625 1.664 0 2.5-.781 2.5-2.344 0-.625-.156-1.254-.469-1.89Zm-6.422 21.14h2.344c1.676 0 3.008.055 4 .157.988.105 1.797.312 2.422.625.625.312 1.172.789 1.64 1.421.47.625.97 1.461 1.5 2.5 1.25 2.399 2.16 4.016 2.735 4.86.57.836 1.223 1.617 1.953 2.344 1.676 1.562 3.66 2.343 5.953 2.343 2.196 0 3.297-.988 3.297-2.968 0-1.458-.89-2.348-2.672-2.672-1.46-.207-2.476-.547-3.047-1.016-.574-.469-1.28-1.484-2.125-3.047-1.148-2.195-2.136-3.945-2.968-5.25-.836-1.3-1.778-2.289-2.829-2.969-1.043-.675-2.293-1.117-3.75-1.328-1.46-.207-3.289-.312-5.484-.312h-26.61c-1.991 0-3.296.183-3.921.547-.625.367-.938 1.12-.938 2.265 0 1.668.989 2.5 2.97 2.5Zm-16.593-77.047c-.844 0-1.579.32-2.204.954-.625.625-.937 1.355-.937 2.187 0 .836.312 1.563.937 2.188.625.625 1.36.937 2.204.937.832 0 1.562-.312 2.187-.937.625-.625.938-1.352.938-2.188 0-.832-.313-1.562-.938-2.187-.625-.633-1.355-.954-2.187-.954ZM705.265 1129.302c-4.386 0-7.914-.625-10.578-1.875-2.656-1.258-4.87-3.297-6.64-6.11-.637-1.038-1.11-2.03-1.422-2.968-.313-.945-.574-2.098-.781-3.453-.211-1.352-.34-3.047-.391-5.078-.055-2.04-.078-4.735-.078-8.078v-56.22c0-3.655.207-6.472.625-8.452.414-1.977 1.254-3.86 2.515-5.64 1.457-2.29 3.438-4.087 5.938-5.391 2.508-1.313 5.227-1.97 8.156-1.97 3.02 0 5.86.762 8.516 2.282 2.664 1.512 4.734 3.57 6.203 6.172a18 18 0 0 1 1.953 5.266c.363 1.824.547 4.402.547 7.734v51.516h16.594c3.03 0 5.484.242 7.36.718a14.677 14.677 0 0 1 5.17 2.422 14.85 14.85 0 0 1 4.86 5.64c1.145 2.294 1.72 4.696 1.72 7.204 0 2.293-.47 4.562-1.407 6.812-.938 2.243-2.246 4.09-3.922 5.547-1.563 1.469-3.313 2.492-5.25 3.063-1.93.574-4.406.86-7.438.86Zm31.47-5.953c2.195 0 3.843-.102 4.937-.312 1.093-.208 2.054-.57 2.89-1.094 1.782-1.145 2.672-2.399 2.672-3.766 0-.726-.234-1.351-.703-1.875-.469-.52-1.074-.781-1.812-.781-.524 0-1.356.367-2.5 1.094-.938.625-1.797 1.015-2.579 1.172-.78.156-2.168.234-4.156.234h-20.672l-1.718-.156c-2.086.21-3.125 1.101-3.125 2.672 0 1.148.312 1.902.937 2.265.625.367 1.926.547 3.906.547Zm-40.235-90.828c-.938 0-1.7.344-2.281 1.031-.575.68-.86 1.434-.86 2.266 0 .836.313 1.562.938 2.187.633.625 1.367.938 2.203.938.832 0 1.562-.313 2.187-.938.625-.625.938-1.351.938-2.187 0-.832-.313-1.586-.938-2.266-.625-.687-1.355-1.031-2.187-1.031Zm.156 76.266v-63.266c0-1.977-.156-3.281-.469-3.906-.312-.625-1.047-.938-2.203-.938-1.148 0-1.902.34-2.265 1.016-.368.68-.547 1.953-.547 3.828v63.11c0 3.968.207 6.636.625 8 .414 1.355 1.351 2.03 2.812 2.03 1.781 0 2.672-.835 2.672-2.515 0-.207-.027-.414-.078-.625a3.15 3.15 0 0 1-.078-.781c-.211-.727-.34-1.352-.39-1.875-.055-.52-.079-1.36-.079-2.516Zm0 0"/></svg>